<svg xmlns="http://www.w3.org/2000/svg" version="1.1" xmlns:xlink="http://www.w3.org/1999/xlink" xmlns:svgjs="http://svgjs.dev/svgjs" width="2000" height="434" viewBox="0 0 2000 434"><g transform="matrix(1,0,0,1,-1.2121212121212466,0.5924172402047532)"><svg viewBox="0 0 396 86" data-background-color="#282634" preserveAspectRatio="xMidYMid meet" height="434" width="2000" xmlns="http://www.w3.org/2000/svg" xmlns:xlink="http://www.w3.org/1999/xlink"><g id="tight-bounds" transform="matrix(1,0,0,1,0.2400000000000091,-0.11739143469495161)"><svg viewBox="0 0 395.52 86.23478286938992" height="86.23478286938992" width="395.52"><g><svg viewBox="0 0 395.52 86.23478286938992" height="86.23478286938992" width="395.52"><g><svg viewBox="0 0 395.52 86.23478286938992" height="86.23478286938992" width="395.52"><g id="textblocktransform"><svg viewBox="0 0 395.52 86.23478286938992" height="86.23478286938992" width="395.52" id="textblock"><g><svg viewBox="0 0 395.52 39.8667374005305" height="39.8667374005305" width="395.52"><g transform="matrix(1,0,0,1,0,0)"><svg width="395.52" viewBox="1.25 -35.5 359.42999999999995 36.1" height="39.8667374005305" data-palette-color="#ff4057"><g class="wordmark-text-0" data-fill-palette-color="primary" id="text-0"><path d="M9.2 0L9.2-3.3 13.15-3.3 13.15-13.95 3.75-31.6 1.25-31.6 1.25-34.9 15.95-34.9 15.95-31.6 12.45-31.6 19.15-18.5 19.35-18.5 26.3-31.6 22.8-31.6 22.8-34.9 33.15-34.9 33.15-31.6 30.6-31.6 21.25-15.05 21.25-3.3 25.2-3.3 25.2 0 9.2 0ZM53.4-3.1L53.4-3.1Q54.95-3.1 56.3-3.6 57.65-4.1 58.67-5.15 59.7-6.2 60.3-7.85 60.9-9.5 60.9-11.8L60.9-11.8 60.9-23.1Q60.9-25.4 60.3-27.05 59.7-28.7 58.67-29.75 57.65-30.8 56.3-31.3 54.95-31.8 53.4-31.8L53.4-31.8Q51.85-31.8 50.5-31.3 49.15-30.8 48.12-29.75 47.1-28.7 46.5-27.05 45.9-25.4 45.9-23.1L45.9-23.1 45.9-11.8Q45.9-9.5 46.5-7.85 47.1-6.2 48.12-5.15 49.15-4.1 50.5-3.6 51.85-3.1 53.4-3.1ZM53.4 0.6L53.4 0.6Q49.9 0.6 46.9-0.6 43.9-1.8 41.7-4.08 39.5-6.35 38.25-9.73 37-13.1 37-17.45L37-17.45Q37-21.8 38.25-25.18 39.5-28.55 41.7-30.83 43.9-33.1 46.9-34.3 49.9-35.5 53.4-35.5L53.4-35.5Q56.9-35.5 59.9-34.3 62.9-33.1 65.1-30.83 67.3-28.55 68.55-25.18 69.8-21.8 69.8-17.45L69.8-17.45Q69.8-13.1 68.55-9.73 67.3-6.35 65.1-4.08 62.9-1.8 59.9-0.6 56.9 0.6 53.4 0.6ZM92.85 0.6L92.85 0.6Q88.8 0.6 85.97-0.2 83.15-1 81.37-2.7 79.6-4.4 78.77-7.03 77.95-9.65 77.95-13.35L77.95-13.35 77.95-31.6 74.45-31.6 74.45-34.9 89.55-34.9 89.55-31.6 86.05-31.6 86.05-13.25Q86.05-10.7 86.42-8.85 86.8-7 87.67-5.75 88.55-4.5 90.02-3.9 91.5-3.3 93.7-3.3L93.7-3.3Q98.1-3.3 99.87-5.68 101.65-8.05 101.65-13.1L101.65-13.1 101.65-31.6 98.15-31.6 98.15-34.9 109.05-34.9 109.05-31.6 105.55-31.6 105.55-13.2Q105.55-6.45 102.55-2.93 99.55 0.6 92.85 0.6ZM112.89 0L112.89-3.3 116.39-3.3 116.39-31.6 112.89-31.6 112.89-34.9 132.54-34.9Q134.84-34.9 136.79-34.4 138.74-33.9 140.17-32.83 141.59-31.75 142.39-30.08 143.19-28.4 143.19-26.05L143.19-26.05Q143.19-24.25 142.59-22.75 141.99-21.25 140.94-20.13 139.89-19 138.49-18.23 137.09-17.45 135.44-17.1L135.44-17.1 141.89-6.25Q142.89-4.55 143.97-3.93 145.04-3.3 146.64-3.3L146.64-3.3 146.89-3.3 146.89 0 142.14 0Q140.39 0 139.09-0.28 137.79-0.55 136.79-1.15 135.79-1.75 135.04-2.65 134.29-3.55 133.64-4.85L133.64-4.85 128.24-15.45 124.49-15.45 124.49-3.3 127.99-3.3 127.99 0 112.89 0ZM124.49-31.3L124.49-18.85 129.49-18.85Q134.84-18.85 134.84-23.6L134.84-23.6 134.84-26.55Q134.84-31.3 129.49-31.3L129.49-31.3 124.49-31.3Z" fill="#ff4057" data-fill-palette-color="primary"></path><path d="M176.64 0.6L176.64 0.6Q173.24 0.6 170.36-0.65 167.49-1.9 165.44-4.23 163.39-6.55 162.24-9.88 161.09-13.2 161.09-17.4L161.09-17.4Q161.09-21.8 162.36-25.18 163.64-28.55 165.86-30.85 168.09-33.15 171.04-34.33 173.99-35.5 177.34-35.5L177.34-35.5Q180.79-35.5 182.81-34.35 184.84-33.2 185.49-32L185.49-32 185.79-32 185.79-34.9 191.59-34.9 191.59-23.8 185.79-23.8 185.79-26Q185.79-28.6 184.19-30.15 182.59-31.7 178.99-31.7L178.99-31.7Q174.44-31.7 172.21-29.38 169.99-27.05 169.99-22.15L169.99-22.15 169.99-12.6Q169.99-8.05 171.96-5.73 173.94-3.4 177.54-3.4L177.54-3.4Q181.04-3.4 182.69-5.18 184.34-6.95 184.34-9.6L184.34-9.6 184.34-14.3 179.34-14.3 179.34-17.6 194.89-17.6 194.89-14.3 192.34-14.3 192.34 0 189.59 0 186.54-5 186.19-5Q185.94-4.15 185.14-3.18 184.34-2.2 183.06-1.38 181.79-0.55 180.16 0.03 178.54 0.6 176.64 0.6ZM217.69 0.6L217.69 0.6Q213.64 0.6 210.81-0.2 207.99-1 206.21-2.7 204.44-4.4 203.61-7.03 202.79-9.65 202.79-13.35L202.79-13.35 202.79-31.6 199.29-31.6 199.29-34.9 214.39-34.9 214.39-31.6 210.89-31.6 210.89-13.25Q210.89-10.7 211.26-8.85 211.64-7 212.51-5.75 213.39-4.5 214.86-3.9 216.34-3.3 218.54-3.3L218.54-3.3Q222.94-3.3 224.71-5.68 226.48-8.05 226.48-13.1L226.48-13.1 226.48-31.6 222.98-31.6 222.98-34.9 233.89-34.9 233.89-31.6 230.39-31.6 230.39-13.2Q230.39-6.45 227.39-2.93 224.39 0.6 217.69 0.6ZM237.73 0L237.73-3.3 241.23-3.3 241.23-31.6 237.73-31.6 237.73-34.9 252.83-34.9 252.83-31.6 249.33-31.6 249.33-3.3 252.83-3.3 252.83 0 237.73 0ZM256.93 0L256.93-3.3 260.43-3.3 260.43-31.6 256.93-31.6 256.93-34.9 273.23-34.9Q276.83-34.9 279.91-33.73 282.98-32.55 285.23-30.33 287.48-28.1 288.76-24.85 290.03-21.6 290.03-17.45L290.03-17.45Q290.03-13.3 288.76-10.05 287.48-6.8 285.23-4.58 282.98-2.35 279.91-1.18 276.83 0 273.23 0L273.23 0 256.93 0ZM268.53-31.3L268.53-3.6 271.78-3.6Q274.28-3.6 276.06-4.1 277.83-4.6 278.96-5.68 280.08-6.75 280.61-8.53 281.13-10.3 281.13-12.85L281.13-12.85 281.13-22.05Q281.13-24.6 280.61-26.38 280.08-28.15 278.96-29.23 277.83-30.3 276.06-30.8 274.28-31.3 271.78-31.3L271.78-31.3 268.53-31.3ZM294.68 0L294.68-3.3 298.18-3.3 298.18-31.6 294.68-31.6 294.68-34.9 322.53-34.9 322.53-25.6 316.73-25.6 316.73-31.3 306.28-31.3 306.28-20 312.88-20 312.88-23 316.58-23 316.58-13.4 312.88-13.4 312.88-16.4 306.28-16.4 306.28-3.6 317.13-3.6 317.13-10.3 322.93-10.3 322.93 0 294.68 0ZM327.58 0L327.58-3.3 331.08-3.3 331.08-31.6 327.58-31.6 327.58-34.9 343.88-34.9Q347.48-34.9 350.55-33.73 353.63-32.55 355.88-30.33 358.13-28.1 359.4-24.85 360.68-21.6 360.68-17.45L360.68-17.45Q360.68-13.3 359.4-10.05 358.13-6.8 355.88-4.58 353.63-2.35 350.55-1.18 347.48 0 343.88 0L343.88 0 327.58 0ZM339.18-31.3L339.18-3.6 342.43-3.6Q344.93-3.6 346.7-4.1 348.48-4.6 349.6-5.68 350.73-6.75 351.25-8.53 351.78-10.3 351.78-12.85L351.78-12.85 351.78-22.05Q351.78-24.6 351.25-26.38 350.73-28.15 349.6-29.23 348.48-30.3 346.7-30.8 344.93-31.3 342.43-31.3L342.43-31.3 339.18-31.3Z" fill="#dcdcdc" data-fill-palette-color="secondary"></path></g></svg></g></svg></g><g transform="matrix(1,0,0,1,0,49.27831729909814)"><svg viewBox="0 0 395.52 36.956465570291776" height="36.956465570291776" width="395.52"><g transform="matrix(1,0,0,1,0,0)"><svg width="395.52" viewBox="0.98 -35.5 385.13 35.99" height="36.956465570291776" data-palette-color="#dcdcdc"><path d="M33.13-35.01L33.13-8.91Q33.13-7.01 32.47-5.37 31.81-3.74 30.63-2.54 29.44-1.34 27.81-0.67 26.17 0 24.24 0L24.24 0 0.98 0 0.98-6.35 24.24-6.35Q25.42-6.35 26.07-7.02 26.73-7.69 26.73-8.91L26.73-8.91 26.73-35.01 33.13-35.01ZM94.85-20.85L94.85-14.16Q94.85-10.96 93.75-8.28 92.65-5.59 90.7-3.64 88.74-1.68 86.07-0.6 83.4 0.49 80.25 0.49L80.25 0.49 71.65 0.49Q68.5 0.49 65.82-0.6 63.13-1.68 61.18-3.64 59.23-5.59 58.11-8.28 57-10.96 57-14.16L57-14.16 57-20.85Q57-24.02 58.11-26.72 59.23-29.42 61.18-31.36 63.13-33.3 65.82-34.4 68.5-35.5 71.65-35.5L71.65-35.5 80.25-35.5Q83.4-35.5 86.07-34.4 88.74-33.3 90.7-31.36 92.65-29.42 93.75-26.72 94.85-24.02 94.85-20.85L94.85-20.85ZM88.5-14.16L88.5-20.85Q88.5-22.73 87.9-24.26 87.3-25.78 86.22-26.87 85.13-27.95 83.6-28.55 82.08-29.15 80.25-29.15L80.25-29.15 71.65-29.15Q69.8-29.15 68.27-28.55 66.74-27.95 65.65-26.87 64.55-25.78 63.95-24.26 63.35-22.73 63.35-20.85L63.35-20.85 63.35-14.16Q63.35-12.28 63.95-10.75 64.55-9.23 65.65-8.14 66.74-7.06 68.27-6.46 69.8-5.86 71.65-5.86L71.65-5.86 80.2-5.86Q82.05-5.86 83.58-6.46 85.1-7.06 86.2-8.14 87.3-9.23 87.9-10.75 88.5-12.28 88.5-14.16L88.5-14.16ZM153.12-35.01L153.12-3.2Q153.12-2.51 152.87-1.93 152.63-1.34 152.19-0.92 151.75-0.49 151.17-0.24 150.58 0 149.92 0L149.92 0 135.61 0Q133.59 0 131.51-0.44 129.44-0.88 127.5-1.79 125.56-2.71 123.85-4.13 122.14-5.54 120.86-7.48 119.57-9.42 118.84-11.93 118.11-14.43 118.11-17.5L118.11-17.5 118.11-35.01 124.46-35.01 124.46-17.5Q124.46-14.82 125.2-12.96 125.95-11.11 127.09-9.86 128.24-8.62 129.61-7.91 130.98-7.2 132.21-6.86 133.44-6.52 134.38-6.43 135.32-6.35 135.61-6.35L135.61-6.35 146.77-6.35 146.77-35.01 153.12-35.01ZM213.17-27.29L213.17-23.24Q213.17-21.07 212.64-19.36 212.1-17.65 211.18-16.35 210.27-15.04 209.07-14.11 207.88-13.18 206.57-12.59 205.26-11.99 203.93-11.72 202.6-11.45 201.43-11.45L201.43-11.45 214.69 0 204.87 0 191.64-11.45 187.08-11.45 187.08-17.8 201.43-17.8Q202.63-17.9 203.62-18.3 204.6-18.7 205.32-19.38 206.05-20.07 206.44-21.03 206.83-22 206.83-23.24L206.83-23.24 206.83-27.25Q206.83-27.78 206.69-28.06 206.56-28.34 206.35-28.48 206.14-28.61 205.91-28.64 205.68-28.66 205.48-28.66L205.48-28.66 184.54-28.66 184.54 0 178.19 0 178.19-31.81Q178.19-32.47 178.43-33.06 178.68-33.64 179.1-34.08 179.53-34.52 180.12-34.77 180.7-35.01 181.39-35.01L181.39-35.01 205.48-35.01Q207.61-35.01 209.07-34.24 210.54-33.47 211.45-32.31 212.37-31.15 212.77-29.81 213.17-28.47 213.17-27.29L213.17-27.29ZM272.23-35.01L272.23-2.71Q272.23-2.03 271.97-1.44 271.72-0.85 271.29-0.43 270.86 0 270.28 0.24 269.69 0.49 269.03 0.49L269.03 0.49Q268.44 0.49 267.85 0.27 267.25 0.05 266.78-0.44L266.78-0.44 243.59-24.66 243.59 0 237.24 0 237.24-32.3Q237.24-33.28 237.79-34.07 238.34-34.86 239.2-35.25L239.2-35.25Q240.1-35.62 241.05-35.44 242-35.25 242.69-34.55L242.69-34.55 265.88-10.35 265.88-35.01 272.23-35.01ZM326.08-20.7L326.08-14.31 306.04-14.31 306.04-20.7 326.08-20.7ZM328.94-6.35L328.94 0 306.04 0Q304.72 0 303.16-0.46 301.6-0.93 300.26-1.99 298.93-3.05 298.04-4.75 297.15-6.45 297.15-8.91L297.15-8.91 297.15-31.81Q297.15-32.47 297.4-33.06 297.64-33.64 298.07-34.08 298.49-34.52 299.08-34.77 299.67-35.01 300.35-35.01L300.35-35.01 328.94-35.01 328.94-28.66 303.5-28.66 303.5-8.91Q303.5-7.67 304.16-7.01 304.82-6.35 306.09-6.35L306.09-6.35 328.94-6.35ZM386.11-35.01L386.11-23.29Q386.11-21.12 385.56-19.41 385.02-17.7 384.11-16.39 383.21-15.09 382-14.16 380.79-13.23 379.5-12.63 378.2-12.04 376.87-11.77 375.54-11.5 374.37-11.5L374.37-11.5 371.81-11.5 371.81 0 365.41 0 365.41-11.5 362.87-11.5Q361.7-11.5 360.37-11.77 359.04-12.04 357.73-12.63 356.43-13.23 355.23-14.16 354.03-15.09 353.12-16.39 352.2-17.7 351.65-19.42 351.1-21.14 351.1-23.29L351.1-23.29 351.1-35.01 357.45-35.01 357.45-23.29Q357.45-22.05 357.84-21.06 358.23-20.07 358.94-19.36 359.65-18.65 360.66-18.27 361.68-17.9 362.92-17.9L362.92-17.9 374.37-17.9Q375.27-18.04 376.23-18.27 377.18-18.51 377.96-19.07 378.74-19.63 379.25-20.63 379.77-21.63 379.77-23.29L379.77-23.29 379.77-35.01 386.11-35.01Z" opacity="1" transform="matrix(1,0,0,1,0,0)" fill="#dcdcdc" class="slogan-text-1" data-fill-palette-color="secondary" id="text-1"></path></svg></g></svg></g></svg></g></svg></g><g></g></svg></g><defs></defs></svg><rect width="395.52" height="86.23478286938992" fill="none" stroke="none" visibility="hidden"></rect></g></svg></g></svg>