<svg xmlns="http://www.w3.org/2000/svg" version="1.1" xmlns:xlink="http://www.w3.org/1999/xlink" xmlns:svgjs="http://svgjs.dev/svgjs" width="2000" height="398" viewBox="0 0 2000 398"><g transform="matrix(1,0,0,1,-1.2121212121212466,-0.1735009195292605)"><svg viewBox="0 0 396 79" data-background-color="#ffffff" preserveAspectRatio="xMidYMid meet" height="398" width="2000" xmlns="http://www.w3.org/2000/svg" xmlns:xlink="http://www.w3.org/1999/xlink"><g id="tight-bounds" transform="matrix(1,0,0,1,0.2400000000000091,0.03443862473068293)"><svg viewBox="0 0 395.52 78.93112275053866" height="78.93112275053866" width="395.52"><g><svg viewBox="0 0 490.6287738266013 97.91130656314152" height="78.93112275053866" width="395.52"><g><rect width="3.163067708446638" height="97.91130656314152" x="83.66542415887022" y="0" fill="#233565" opacity="1" stroke-width="0" stroke="transparent" fill-opacity="1" class="rect-r$-0" data-fill-palette-color="primary" rx="1%" id="r$-0" data-palette-color="#233565"></rect></g><g transform="matrix(1,0,0,1,95.10877382660125,0.24356046408740895)"><svg viewBox="0 0 395.52000000000004 97.4241856349667" height="97.4241856349667" width="395.52000000000004"><g id="textblocktransform"><svg viewBox="0 0 395.52000000000004 97.4241856349667" height="97.4241856349667" width="395.52000000000004" id="textblock"><g><svg viewBox="0 0 395.52000000000004 77.46921653300431" height="77.46921653300431" width="395.52000000000004"><g transform="matrix(1,0,0,1,0,0)"><svg width="395.52000000000004" viewBox="4 -28.75 324.2 60.50000000000001" height="77.46921653300431" data-palette-color="#233565"><svg></svg><svg></svg><g class="wordmark-text-0" data-fill-palette-color="primary" id="text-0"><path d="M5 0v-28.75h16v5.65h-9.7v17.25h9.7v5.85zM39.45-3.4v-21.9l-5.65-3.45h-10.35v5.65h9.7v17.25h-9.7v5.85h10.35zM46.95-14.75v-10.55l5.7-3.45h10.3v5.9h-9.9v5.65h9.9v5.85h-10.3zM81.4-3.4v-10.35l-5.9-3.45h-10.3v5.85h9.9v5.7h-9.7v5.65h10.1zM46.95-9.1h6.3v3.45h9.7v5.65h-10.15l-5.85-3.4zM75.1-19.45h6.3v-5.85l-5.9-3.45h-10.3v5.9h9.9zM88.9-25.3v0l5.7-3.45h10.3v5.65h-9.7v5.9h9.7v5.7h-9.7v11.5h-6.3zM123.35-25.3v0l-5.9-3.45h-10.3v5.65h9.9v5.9h-9.9v5.7h9.9v11.5h6.3z" fill="#233565" fill-rule="nonzero" stroke="none" stroke-width="1" stroke-linecap="butt" stroke-linejoin="miter" stroke-miterlimit="10" stroke-dasharray="" stroke-dashoffset="0" font-family="none" font-weight="none" font-size="none" text-anchor="none" style="mix-blend-mode: normal" data-fill-palette-color="primary" opacity="1"></path><path transform="translate(0,31.75)" d="M4-3.4v-21.9l5.85-3.45h10.35v5.65h-9.9v17.25h9.7v5.85h-10.15zM32.8-28.75l5.65 3.45v21.9l-5.65 3.4v0 0 0h-10.35v-5.85h4.25l-4.25-4.05 4.05-3.85 5.65 5.65v-15h-9.7v-5.65zM43.35-28.75v0h6.3v22.9h9.7v5.85h-10.3l-5.7-3.4zM77.8-28.75v0h-6.3v22.9h-9.7v5.85h10.35l5.65-3.4zM86.8-28.75v0h16v5.9h-9.7v5.65h9.7v5.7h-9.7v5.85h9.5v5.65h-15.8zM105.25-5.65v0 5.65h16v-5.65zM121.25-22.85v0-5.9h-16.2v5.9zM113.15-11.5v0-5.7h-8.1v5.7zM126.25-14.75v-10.55l5.7-3.45h10.3v5.9h-9.9v5.65h9.9v5.85h-10.3zM160.7-3.4v-10.35l-5.9-3.45h-10.3v5.85h9.9v5.7h-9.7v5.65h10.1zM126.25-9.1h6.3v3.45h9.7v5.65h-10.15l-5.85-3.4zM154.4-19.45h6.3v-5.85l-5.9-3.45h-10.3v5.9h9.9zM200.15-28.75v5.65h-14.4v23.1h-6.9v-23.1h-13.15v-5.65zM206.65-28.75v0h5.7l10.3 9.7v7.55l-9.7-9.15v20.65h-6.3zM241.1-28.75v0h-5.65l-10.35 9.7v7.55l9.7-9.15v20.65h6.3zM250.1-25.3v0l5.7-3.45h10.3v5.65h-9.7v5.9h9.7v5.7h-9.7v11.5h-6.3zM284.55-25.3v0l-5.9-3.45h-10.3v5.65h9.9v5.9h-9.9v5.7h9.9v11.5h6.3zM293.55-28.75v0h16.2v5.65h-9.7v5.9h9.7v5.85h-9.7v11.35h-6.5zM328.2-14.75v0-10.55l-5.85-3.45h-10.35v5.65h9.7v5.9h-9.7v5.85h10.35z" fill="#233565" fill-rule="nonzero" stroke="none" stroke-width="1" stroke-linecap="butt" stroke-linejoin="miter" stroke-miterlimit="10" stroke-dasharray="" stroke-dashoffset="0" font-family="none" font-weight="none" font-size="none" text-anchor="none" style="mix-blend-mode: normal" data-fill-palette-color="primary" opacity="1"></path></g></svg></g></svg></g><g transform="matrix(1,0,0,1,0,85.74949849228871)"><svg viewBox="0 0 232.20979200000005 11.674687142677993" height="11.674687142677993" width="232.20979200000005"><g transform="matrix(1,0,0,1,0,0)"><svg width="232.20979200000005" viewBox="0.25 -32.7 877.05 44.1" height="11.674687142677993" data-palette-color="#233565"><path d="M19.3-30.6L19.3-31.5 26.1-31.5 26.1-30.6 24.25-30.6Q23.55-30.6 23.3-29.9L23.3-29.9 15.65-11.45 15.65-1.6Q15.65-0.9 16.35-0.9L16.35-0.9 19.95-0.9 19.95 0 7.25 0 7.25-0.9 10.85-0.9Q11.55-0.9 11.55-1.6L11.55-1.6 11.55-11.5 3.05-29.9Q2.7-30.6 2.1-30.6L2.1-30.6 0.25-30.6 0.25-31.5 9.8-31.5 9.8-30.6 7.3-30.6 14.95-14 21.8-30.6 19.3-30.6ZM26.4-2.45Q23.6-5.5 23.6-10.8 23.6-16.1 26.4-19.15 29.2-22.2 33.7-22.2 38.2-22.2 41.02-19.15 43.85-16.1 43.85-10.8 43.85-5.5 41.02-2.45 38.2 0.6 33.7 0.6 29.2 0.6 26.4-2.45ZM29.2-18.32Q27.4-15.55 27.4-10.8 27.4-6.05 29.2-3.28 31-0.5 33.7-0.5 36.4-0.5 38.22-3.28 40.05-6.05 40.05-10.8 40.05-15.55 38.22-18.32 36.4-21.1 33.7-21.1 31-21.1 29.2-18.32ZM67.19-21.9L67.19-21.9 67.19-1.6Q67.19-0.9 67.89-0.9L67.89-0.9 70.25-0.9 70.25 0 67.8 0Q64.8 0 63.59 0.3L63.59 0.3 63.59-6.45Q61.89 0.6 56.09 0.6L56.09 0.6Q53.49 0.6 51.7-1.28 49.89-3.15 49.89-7L49.89-7 49.89-20Q49.89-20.7 49.2-20.7L49.2-20.7 46.84-20.7 46.84-21.6 49.3-21.6Q52.3-21.6 53.49-21.9L53.49-21.9 53.49-6.35Q53.49-3.8 54.62-2.58 55.74-1.35 57.59-1.35L57.59-1.35Q60.24-1.35 61.92-4.58 63.59-7.8 63.59-13.85L63.59-13.85 63.59-20Q63.59-20.7 62.89-20.7L62.89-20.7 60.55-20.7 60.55-21.6 63-21.6Q66-21.6 67.19-21.9ZM86.49-22.2Q88.44-22.2 89.67-20.55 90.89-18.9 90.89-16.4 90.89-13.9 88.84-13.9L88.84-13.9Q87.64-13.9 86.89-14.65L86.89-14.65Q87.54-16.1 87.54-17.6L87.54-17.6Q87.54-20.25 85.34-20.25L85.34-20.25Q83.49-20.25 82.07-17.18 80.64-14.1 80.64-8.25L80.64-8.25 80.64-1.6Q80.64-0.9 81.34-0.9L81.34-0.9 84.69-0.9 84.69 0 73.99 0 73.99-0.9 76.34-0.9Q77.04-0.9 77.04-1.6L77.04-1.6 77.04-20Q77.04-20.7 76.34-20.7L76.34-20.7 73.99-20.7 73.99-21.6 76.44-21.6Q79.44-21.6 80.64-21.9L80.64-21.9 80.64-15.5Q81.44-18.95 82.99-20.58 84.54-22.2 86.49-22.2ZM119.74-30.65L119.74-30.65Q115.19-30.65 112.41-26.65 109.64-22.65 109.64-15.7 109.64-8.75 112.44-4.8 115.24-0.85 119.46-0.85 123.69-0.85 125.36-3.03 127.04-5.2 127.04-9.4L127.04-9.4 127.04-11.4Q127.04-12 126.34-12L126.34-12 122.99-12 122.99-12.9 133.19-12.9 133.19-12 131.84-12Q131.14-12 131.14-11.4L131.14-11.4 131.14-9.6Q131.14-5.15 127.94-2.27 124.74 0.6 119.74 0.6L119.74 0.6Q113.44 0.6 109.41-3.75 105.39-8.1 105.39-15.73 105.39-23.35 109.36-27.73 113.34-32.1 119.74-32.1L119.74-32.1Q122.99-32.1 126.24-30.45L126.24-30.45Q127.29-29.9 127.74-29.9L127.74-29.9Q128.49-29.9 128.54-30.95L128.54-30.95 128.59-31.8 129.54-31.8 129.54-23.15 128.64-23.15Q128.19-27 125.76-28.83 123.34-30.65 119.74-30.65ZM154.54-21.9L154.54-21.9 154.54-1.6Q154.54-0.9 155.24-0.9L155.24-0.9 157.59-0.9 157.59 0 155.14 0Q152.14 0 150.94 0.3L150.94 0.3 150.94-6.45Q149.24 0.6 143.44 0.6L143.44 0.6Q140.84 0.6 139.04-1.28 137.24-3.15 137.24-7L137.24-7 137.24-20Q137.24-20.7 136.54-20.7L136.54-20.7 134.19-20.7 134.19-21.6 136.64-21.6Q139.64-21.6 140.84-21.9L140.84-21.9 140.84-6.35Q140.84-3.8 141.96-2.58 143.09-1.35 144.94-1.35L144.94-1.35Q147.59-1.35 149.26-4.58 150.94-7.8 150.94-13.85L150.94-13.85 150.94-20Q150.94-20.7 150.24-20.7L150.24-20.7 147.89-20.7 147.89-21.6 150.34-21.6Q153.34-21.6 154.54-21.9ZM164.38-1.6L164.38-1.6 164.38-20Q164.38-20.7 163.68-20.7L163.68-20.7 161.33-20.7 161.33-21.6 163.78-21.6Q166.78-21.6 167.98-21.9L167.98-21.9 167.98-1.5Q167.98-0.9 168.68-0.9L168.68-0.9 171.03-0.9 171.03 0 161.33 0 161.33-0.9 163.68-0.9Q164.38-0.9 164.38-1.6ZM164.51-27.13Q163.83-27.8 163.83-28.8 163.83-29.8 164.51-30.48 165.18-31.15 166.18-31.15 167.18-31.15 167.86-30.48 168.53-29.8 168.53-28.8 168.53-27.8 167.86-27.13 167.18-26.45 166.18-26.45 165.18-26.45 164.51-27.13ZM189.38 0.3L189.38 0.3 189.38-4Q186.58 0.6 182.76 0.6 178.93 0.6 176.73-2.45 174.53-5.5 174.53-10.75 174.53-16 177.33-19.1 180.13-22.2 184.38-22.2L184.38-22.2Q187.13-22.2 189.38-20.85L189.38-20.85 189.38-30.8Q189.38-31.5 188.68-31.5L188.68-31.5 186.33-31.5 186.33-32.4 188.78-32.4Q191.78-32.4 192.98-32.7L192.98-32.7 192.98-1.6Q192.98-0.9 193.68-0.9L193.68-0.9 196.03-0.9 196.03 0 193.58 0Q190.58 0 189.38 0.3ZM184.51-20.7Q181.93-20.7 180.13-18.13 178.33-15.55 178.33-10.95 178.33-6.35 179.81-3.83 181.28-1.3 183.53-1.3L183.53-1.3Q186.78-1.3 189.38-5.85L189.38-5.85 189.38-19.3Q187.08-20.7 184.51-20.7ZM209.63-22.2L209.63-22.2Q213.08-22.2 215.08-19.9 217.08-17.6 217.08-13.15L217.08-13.15Q217.08-12.25 216.98-11.15L216.98-11.15 203.33-11.15 203.33-10.8Q203.33-6.05 205.05-3.33 206.78-0.6 209.5-0.6 212.23-0.6 213.98-2 215.73-3.4 216.38-6L216.38-6 217.33-5.8Q216.73-2.75 214.58-1.07 212.43 0.6 209.63 0.6L209.63 0.6Q205.28 0.6 202.4-2.45 199.53-5.5 199.53-10.78 199.53-16.05 202.43-19.13 205.33-22.2 209.63-22.2ZM213.63-14.85L213.63-14.85Q213.63-21 209.03-21L209.03-21Q206.73-21 205.1-18.5 203.48-16 203.38-12.15L203.38-12.15 213.43-12.15Q213.63-13.85 213.63-14.85ZM236.43 0.3L236.43 0.3 236.43-4Q233.63 0.6 229.8 0.6 225.98 0.6 223.78-2.45 221.58-5.5 221.58-10.75 221.58-16 224.38-19.1 227.18-22.2 231.43-22.2L231.43-22.2Q234.18-22.2 236.43-20.85L236.43-20.85 236.43-30.8Q236.43-31.5 235.73-31.5L235.73-31.5 233.38-31.5 233.38-32.4 235.83-32.4Q238.83-32.4 240.03-32.7L240.03-32.7 240.03-1.6Q240.03-0.9 240.73-0.9L240.73-0.9 243.08-0.9 243.08 0 240.63 0Q237.63 0 236.43 0.3ZM231.55-20.7Q228.98-20.7 227.18-18.13 225.38-15.55 225.38-10.95 225.38-6.35 226.85-3.83 228.33-1.3 230.58-1.3L230.58-1.3Q233.83-1.3 236.43-5.85L236.43-5.85 236.43-19.3Q234.13-20.7 231.55-20.7ZM265.97-29.9L265.97-29.9 265.97-6.35Q265.97 7.95 258.57 7.95L258.57 7.95Q255.82 7.95 254.57 6.58 253.32 5.2 253.32 3.7L253.32 3.7Q253.32 0.6 255.17 0.6L255.17 0.6Q256.72 0.6 257.62 1.35L257.62 1.35Q256.82 2.75 256.82 4.1L256.82 4.1Q256.82 6.75 259.02 6.75L259.02 6.75Q261.87 6.75 261.87 2.25L261.87 2.25 261.87-30Q261.87-30.6 261.17-30.6L261.17-30.6 258.82-30.6 258.82-31.5 269.02-31.5 269.02-30.6 266.67-30.6Q265.97-30.6 265.97-29.9ZM275.32-2.45Q272.52-5.5 272.52-10.8 272.52-16.1 275.32-19.15 278.12-22.2 282.62-22.2 287.12-22.2 289.94-19.15 292.77-16.1 292.77-10.8 292.77-5.5 289.94-2.45 287.12 0.6 282.62 0.6 278.12 0.6 275.32-2.45ZM278.12-18.32Q276.32-15.55 276.32-10.8 276.32-6.05 278.12-3.28 279.92-0.5 282.62-0.5 285.32-0.5 287.14-3.28 288.97-6.05 288.97-10.8 288.97-15.55 287.14-18.32 285.32-21.1 282.62-21.1 279.92-21.1 278.12-18.32ZM316.12-21.9L316.12-21.9 316.12-1.6Q316.12-0.9 316.82-0.9L316.82-0.9 319.17-0.9 319.17 0 316.72 0Q313.72 0 312.52 0.3L312.52 0.3 312.52-6.45Q310.82 0.6 305.02 0.6L305.02 0.6Q302.42 0.6 300.62-1.28 298.82-3.15 298.82-7L298.82-7 298.82-20Q298.82-20.7 298.12-20.7L298.12-20.7 295.77-20.7 295.77-21.6 298.22-21.6Q301.22-21.6 302.42-21.9L302.42-21.9 302.42-6.35Q302.42-3.8 303.54-2.58 304.67-1.35 306.52-1.35L306.52-1.35Q309.17-1.35 310.84-4.58 312.52-7.8 312.52-13.85L312.52-13.85 312.52-20Q312.52-20.7 311.82-20.7L311.82-20.7 309.47-20.7 309.47-21.6 311.92-21.6Q314.92-21.6 316.12-21.9ZM335.41-22.2Q337.36-22.2 338.59-20.55 339.81-18.9 339.81-16.4 339.81-13.9 337.76-13.9L337.76-13.9Q336.56-13.9 335.81-14.65L335.81-14.65Q336.46-16.1 336.46-17.6L336.46-17.6Q336.46-20.25 334.26-20.25L334.26-20.25Q332.41-20.25 330.99-17.18 329.56-14.1 329.56-8.25L329.56-8.25 329.56-1.6Q329.56-0.9 330.26-0.9L330.26-0.9 333.61-0.9 333.61 0 322.91 0 322.91-0.9 325.26-0.9Q325.96-0.9 325.96-1.6L325.96-1.6 325.96-20Q325.96-20.7 325.26-20.7L325.26-20.7 322.91-20.7 322.91-21.6 325.36-21.6Q328.36-21.6 329.56-21.9L329.56-21.9 329.56-15.5Q330.36-18.95 331.91-20.58 333.46-22.2 335.41-22.2ZM362.66-14.6L362.66-14.6 362.66-1.5Q362.66-0.9 363.36-0.9L363.36-0.9 365.71-0.9 365.71 0 356.71 0 356.71-0.9 358.36-0.9Q359.06-0.9 359.06-1.5L359.06-1.5 359.06-15.25Q359.06-17.8 357.94-19.03 356.81-20.25 354.96-20.25L354.96-20.25Q352.36-20.25 350.66-17.18 348.96-14.1 348.96-8.35L348.96-8.35 348.96-1.6Q348.96-0.9 349.66-0.9L349.66-0.9 351.31-0.9 351.31 0 342.31 0 342.31-0.9 344.66-0.9Q345.36-0.9 345.36-1.5L345.36-1.5 345.36-20Q345.36-20.7 344.66-20.7L344.66-20.7 342.31-20.7 342.31-21.6 344.76-21.6Q347.76-21.6 348.96-21.9L348.96-21.9 348.96-15.1Q350.66-22.2 356.46-22.2L356.46-22.2Q359.06-22.2 360.86-20.33 362.66-18.45 362.66-14.6ZM379.56-22.2L379.56-22.2Q383.01-22.2 385.01-19.9 387.01-17.6 387.01-13.15L387.01-13.15Q387.01-12.25 386.91-11.15L386.91-11.15 373.26-11.15 373.26-10.8Q373.26-6.05 374.98-3.33 376.71-0.6 379.43-0.6 382.16-0.6 383.91-2 385.66-3.4 386.31-6L386.31-6 387.26-5.8Q386.66-2.75 384.51-1.07 382.36 0.6 379.56 0.6L379.56 0.6Q375.21 0.6 372.33-2.45 369.46-5.5 369.46-10.78 369.46-16.05 372.36-19.13 375.26-22.2 379.56-22.2ZM383.56-14.85L383.56-14.85Q383.56-21 378.96-21L378.96-21Q376.66-21 375.03-18.5 373.41-16 373.31-12.15L373.31-12.15 383.36-12.15Q383.56-13.85 383.56-14.85ZM404-20.7L404-21.6 410.36-21.6 410.36-20.7 408.5-20.7Q408.06-20.7 407.81-20L407.81-20 399.15 3.15Q399 3.6 398.65 4.5L398.65 4.5 398.11 5.85Q397.95 6.3 397.65 7.08 397.36 7.85 397.15 8.28 396.95 8.7 396.65 9.3L396.65 9.3Q396.31 10.05 395.65 10.73 395 11.4 394.31 11.4 393.61 11.4 392.83 10.53 392.06 9.65 391.9 8.65L391.9 8.65Q396.45 6.7 398.11 2.15L398.11 2.15 398.95-0.15 391.56-20Q391.31-20.7 390.86-20.7L390.86-20.7 389-20.7 389-21.6 397.5-21.6 397.5-20.7 395-20.7 400.75-4.9 406.56-20.7 404-20.7ZM429.25-26.9L429.25-26.9 430-26.9 430-21.6 435-21.6 435-20.7 430-20.7 430-3.75Q430-1.05 431.5-1.05L431.5-1.05Q432.2-1.05 432.73-1.7 433.25-2.35 433.25-3.2 433.25-4.05 433.1-4.8L433.1-4.8 434.05-4.95Q434.25-4.2 434.25-3.3L434.25-3.3Q434.25-1.5 433.18-0.45 432.1 0.6 430.35 0.6 428.6 0.6 427.5-0.83 426.4-2.25 426.4-5.1L426.4-5.1 426.4-20Q426.4-20.7 425.7-20.7L425.7-20.7 423.35-20.7 423.35-21.6 425.8-21.6Q427.4-21.6 429.25-26.9ZM440.8-2.45Q438-5.5 438-10.8 438-16.1 440.8-19.15 443.6-22.2 448.1-22.2 452.6-22.2 455.42-19.15 458.25-16.1 458.25-10.8 458.25-5.5 455.42-2.45 452.6 0.6 448.1 0.6 443.6 0.6 440.8-2.45ZM443.6-18.32Q441.8-15.55 441.8-10.8 441.8-6.05 443.6-3.28 445.4-0.5 448.1-0.5 450.8-0.5 452.62-3.28 454.45-6.05 454.45-10.8 454.45-15.55 452.62-18.32 450.8-21.1 448.1-21.1 445.4-21.1 443.6-18.32ZM501.54-0.9L501.54 0 491.29 0 491.29-0.9 494.54-0.9 491.04-10.55 480.04-10.55 476.54-0.9 479.79-0.9 479.79 0 472.24 0 472.24-0.9 474.09-0.9Q474.79-0.9 475.04-1.6L475.04-1.6 486.04-31.5 487.74-31.5 498.74-1.6Q498.99-0.9 499.69-0.9L499.69-0.9 501.54-0.9ZM490.54-11.95L485.59-25.6 480.59-11.95 490.54-11.95ZM505.59-1.6L505.59-1.6 505.59-30.8Q505.59-31.5 504.89-31.5L504.89-31.5 502.54-31.5 502.54-32.4 504.99-32.4Q507.99-32.4 509.19-32.7L509.19-32.7 509.19-1.6Q509.19-0.9 509.89-0.9L509.89-0.9 512.24-0.9 512.24 0 502.54 0 502.54-0.9 504.89-0.9Q505.59-0.9 505.59-1.6ZM535.14-21L535.14-21 534.74-21.05Q534.29-24.15 532.49-24.15L532.49-24.15Q531.59-24.15 530.84-23.2 530.09-22.25 529.94-20.7L529.94-20.7Q532.64-18.65 532.64-15 532.64-11.35 530.51-9.38 528.39-7.4 524.99-7.4L524.99-7.4 520.54-7.4Q519.29-7.4 518.61-6.7 517.94-6 517.94-5.05 517.94-4.1 518.61-3.4 519.29-2.7 520.54-2.7L520.54-2.7 528.89-2.7Q531.89-2.7 533.41-1.33 534.94 0.05 534.94 2.15L534.94 2.15Q534.94 5.5 531.79 8.45 528.64 11.4 523.94 11.4L523.94 11.4Q520.34 11.4 518.09 9.7 515.84 8 515.84 5.4 515.84 2.8 518.59 0.4L518.59 0.4Q517.29 0.05 516.51-1.07 515.74-2.2 515.74-3.85 515.74-5.5 516.94-6.83 518.14-8.15 520.54-8.15L520.54-8.15 521.29-8.15Q517.39-9.95 517.39-14.8L517.39-14.8Q517.39-18.25 519.49-20.23 521.59-22.2 524.99-22.2L524.99-22.2Q527.24-22.2 528.94-21.3L528.94-21.3Q529.29-23.3 530.36-24.6 531.44-25.9 533.21-25.9 534.99-25.9 536.16-24.95 537.34-24 537.34-22.9L537.34-22.9Q537.34-21 535.14-21ZM528.89 0.6L528.89 0.6 520.14 0.6Q518.54 2.45 518.54 4.8 518.54 7.15 519.94 8.68 521.34 10.2 524.46 10.2 527.59 10.2 530.14 8 532.69 5.8 532.69 3.45L532.69 3.45Q532.69 2.2 531.74 1.4 530.79 0.6 528.89 0.6ZM522.09-19.4Q520.94-17.7 520.94-14.8 520.94-11.9 522.09-10.2 523.24-8.5 524.99-8.5 526.74-8.5 527.91-10.2 529.09-11.9 529.09-14.8 529.09-17.7 527.91-19.4 526.74-21.1 524.99-21.1 523.24-21.1 522.09-19.4ZM541.23-2.45Q538.43-5.5 538.43-10.8 538.43-16.1 541.23-19.15 544.03-22.2 548.53-22.2 553.03-22.2 555.86-19.15 558.68-16.1 558.68-10.8 558.68-5.5 555.86-2.45 553.03 0.6 548.53 0.6 544.03 0.6 541.23-2.45ZM544.03-18.32Q542.23-15.55 542.23-10.8 542.23-6.05 544.03-3.28 545.83-0.5 548.53-0.5 551.23-0.5 553.06-3.28 554.88-6.05 554.88-10.8 554.88-15.55 553.06-18.32 551.23-21.1 548.53-21.1 545.83-21.1 544.03-18.32ZM575.43-22.2Q577.38-22.2 578.61-20.55 579.83-18.9 579.83-16.4 579.83-13.9 577.78-13.9L577.78-13.9Q576.58-13.9 575.83-14.65L575.83-14.65Q576.48-16.1 576.48-17.6L576.48-17.6Q576.48-20.25 574.28-20.25L574.28-20.25Q572.43-20.25 571.01-17.18 569.58-14.1 569.58-8.25L569.58-8.25 569.58-1.6Q569.58-0.9 570.28-0.9L570.28-0.9 573.63-0.9 573.63 0 562.93 0 562.93-0.9 565.28-0.9Q565.98-0.9 565.98-1.6L565.98-1.6 565.98-20Q565.98-20.7 565.28-20.7L565.28-20.7 562.93-20.7 562.93-21.6 565.38-21.6Q568.38-21.6 569.58-21.9L569.58-21.9 569.58-15.5Q570.38-18.95 571.93-20.58 573.48-22.2 575.43-22.2ZM585.38-1.6L585.38-1.6 585.38-20Q585.38-20.7 584.68-20.7L584.68-20.7 582.33-20.7 582.33-21.6 584.78-21.6Q587.78-21.6 588.98-21.9L588.98-21.9 588.98-1.5Q588.98-0.9 589.68-0.9L589.68-0.9 592.03-0.9 592.03 0 582.33 0 582.33-0.9 584.68-0.9Q585.38-0.9 585.38-1.6ZM585.5-27.13Q584.83-27.8 584.83-28.8 584.83-29.8 585.5-30.48 586.18-31.15 587.18-31.15 588.18-31.15 588.85-30.48 589.53-29.8 589.53-28.8 589.53-27.8 588.85-27.13 588.18-26.45 587.18-26.45 586.18-26.45 585.5-27.13ZM600.43-26.9L600.43-26.9 601.18-26.9 601.18-21.6 606.18-21.6 606.18-20.7 601.18-20.7 601.18-3.75Q601.18-1.05 602.68-1.05L602.68-1.05Q603.38-1.05 603.9-1.7 604.43-2.35 604.43-3.2 604.43-4.05 604.28-4.8L604.28-4.8 605.23-4.95Q605.43-4.2 605.43-3.3L605.43-3.3Q605.43-1.5 604.35-0.45 603.28 0.6 601.53 0.6 599.78 0.6 598.68-0.83 597.58-2.25 597.58-5.1L597.58-5.1 597.58-20Q597.58-20.7 596.88-20.7L596.88-20.7 594.53-20.7 594.53-21.6 596.98-21.6Q598.58-21.6 600.43-26.9ZM629.02-14.6L629.02-14.6 629.02-1.5Q629.02-0.9 629.72-0.9L629.72-0.9 632.07-0.9 632.07 0 623.07 0 623.07-0.9 624.72-0.9Q625.42-0.9 625.42-1.5L625.42-1.5 625.42-15.25Q625.42-17.8 624.3-19.03 623.17-20.25 621.32-20.25L621.32-20.25Q618.72-20.25 617.02-17.18 615.32-14.1 615.32-8.35L615.32-8.35 615.32-1.6Q615.32-0.9 616.02-0.9L616.02-0.9 617.67-0.9 617.67 0 608.67 0 608.67-0.9 611.02-0.9Q611.72-0.9 611.72-1.5L611.72-1.5 611.72-30.8Q611.72-31.5 611.02-31.5L611.02-31.5 608.67-31.5 608.67-32.4 611.12-32.4Q614.12-32.4 615.32-32.7L615.32-32.7 615.32-15.1Q617.02-22.2 622.82-22.2L622.82-22.2Q625.42-22.2 627.22-20.33 629.02-18.45 629.02-14.6ZM668.87-14.6L668.87-14.6 668.87-1.5Q668.87-0.9 669.57-0.9L669.57-0.9 671.92-0.9 671.92 0 662.92 0 662.92-0.9 664.57-0.9Q665.27-0.9 665.27-1.5L665.27-1.5 665.27-15.25Q665.27-17.8 664.22-19.03 663.17-20.25 661.37-20.25L661.37-20.25Q658.87-20.25 657.27-17.03 655.67-13.8 655.67-7.75L655.67-7.75 655.67-1.6Q655.67-0.9 656.37-0.9L656.37-0.9 658.72-0.9 658.72 0 649.72 0 649.72-0.9 651.37-0.9Q652.07-0.9 652.07-1.5L652.07-1.5 652.07-15.25Q652.07-17.8 651.02-19.03 649.97-20.25 648.17-20.25L648.17-20.25Q645.67-20.25 644.07-17.03 642.47-13.8 642.47-7.75L642.47-7.75 642.47-1.6Q642.47-0.9 643.17-0.9L643.17-0.9 644.82-0.9 644.82 0 635.82 0 635.82-0.9 638.17-0.9Q638.87-0.9 638.87-1.5L638.87-1.5 638.87-20Q638.87-20.7 638.17-20.7L638.17-20.7 635.82-20.7 635.82-21.6 638.27-21.6Q641.27-21.6 642.47-21.9L642.47-21.9 642.47-15.2Q644.12-22.2 649.57-22.2L649.57-22.2Q651.97-22.2 653.75-20.45 655.52-18.7 655.67-15.15L655.67-15.15Q657.32-22.2 662.77-22.2L662.77-22.2Q665.27-22.2 667.07-20.33 668.87-18.45 668.87-14.6ZM678.97-1.6L678.97-1.6 678.97-20Q678.97-20.7 678.27-20.7L678.27-20.7 675.92-20.7 675.92-21.6 678.37-21.6Q681.37-21.6 682.57-21.9L682.57-21.9 682.57-1.5Q682.57-0.9 683.27-0.9L683.27-0.9 685.62-0.9 685.62 0 675.92 0 675.92-0.9 678.27-0.9Q678.97-0.9 678.97-1.6ZM679.09-27.13Q678.42-27.8 678.42-28.8 678.42-29.8 679.09-30.48 679.77-31.15 680.77-31.15 681.77-31.15 682.44-30.48 683.12-29.8 683.12-28.8 683.12-27.8 682.44-27.13 681.77-26.45 680.77-26.45 679.77-26.45 679.09-27.13ZM699.32-21L699.32-21Q696.47-21 694.69-18.28 692.92-15.55 692.92-10.8 692.92-6.05 694.64-3.33 696.37-0.6 699.09-0.6 701.82-0.6 703.57-2 705.32-3.4 705.97-6L705.97-6 706.92-5.8Q706.32-2.75 704.17-1.07 702.02 0.6 699.22 0.6L699.22 0.6Q694.87 0.6 691.99-2.45 689.12-5.5 689.12-10.8 689.12-16.1 692.02-19.15 694.92-22.2 699.32-22.2L699.32-22.2Q702.72-22.2 704.42-20.68 706.12-19.15 706.12-16.6L706.12-16.6Q706.12-13.3 704.27-13.3L704.27-13.3Q702.77-13.3 701.87-14.1L701.87-14.1Q702.57-15.6 702.57-17.23 702.57-18.85 701.74-19.93 700.92-21 699.32-21ZM756.91 0L746.71 0 746.71-0.9 749.06-0.9Q749.76-0.9 749.76-1.5L749.76-1.5 749.76-27.05 739.31 0 737.61 0 727.16-26.3 727.16-1.6Q727.16-0.9 727.86-0.9L727.86-0.9 730.21-0.9 730.21 0 722.41 0 722.41-0.9 724.76-0.9Q725.46-0.9 725.46-1.6L725.46-1.6 725.46-30Q725.46-30.6 724.76-30.6L724.76-30.6 722.41-30.6 722.41-31.5 729.56-31.5 739.76-5.65 749.76-31.5 756.91-31.5 756.91-30.6 754.56-30.6Q753.86-30.6 753.86-29.9L753.86-29.9 753.86-1.5Q753.86-0.9 754.56-0.9L754.56-0.9 756.91-0.9 756.91 0ZM772.96-11.2L772.96-11.65 773.01-13.4 773.01-15.15Q773.01-21 769.21-21L769.21-21Q767.56-21 766.63-19.88 765.71-18.75 765.71-17.25 765.71-15.75 766.11-14.65L766.11-14.65Q765.26-13.9 763.76-13.9 762.26-13.9 762.26-16.35 762.26-18.8 764.18-20.5 766.11-22.2 769.66-22.2L769.66-22.2Q776.61-22.2 776.61-14L776.61-14 776.61-3.75Q776.61-1.05 778.11-1.05L778.11-1.05Q778.81-1.05 779.33-1.7 779.86-2.35 779.86-3.2 779.86-4.05 779.71-4.8L779.71-4.8 780.66-4.95Q780.86-4.2 780.86-3.3L780.86-3.3Q780.86-1.5 779.78-0.45 778.71 0.6 776.96 0.6 775.21 0.6 774.11-0.83 773.01-2.25 773.01-5.1L773.01-5.1 773.01-6Q772.16-2.6 770.31-1 768.46 0.6 766.03 0.6 763.61 0.6 762.13-0.93 760.66-2.45 760.66-4.98 760.66-7.5 763.01-9.47 765.36-11.45 769.76-11.45L769.76-11.45Q770.71-11.45 772.96-11.2L772.96-11.2ZM767.16-1.3L767.16-1.3Q769.26-1.3 770.93-3.68 772.61-6.05 772.91-10.35L772.91-10.35Q772.41-10.4 771.51-10.4L771.51-10.4Q767.51-10.4 765.78-8.72 764.06-7.05 764.06-4.85L764.06-4.85Q764.06-3.4 764.91-2.35 765.76-1.3 767.16-1.3ZM790.11-13.55L790.11-13.55 795.31-11.6Q797.16-10.9 798.13-9.47 799.11-8.05 799.11-6.3L799.11-6.3Q799.11-3.6 796.96-1.5 794.81 0.6 791.18 0.6 787.56 0.6 784.36-0.75L784.36-0.75Q784.66-1.95 784.66-4.95L784.66-4.95 784.66-6.95 785.56-6.95 785.91-4.35Q786.36-0.6 791.16-0.6L791.16-0.6Q793.31-0.6 794.73-1.93 796.16-3.25 796.16-4.95L796.16-4.95Q796.16-7.3 793.31-8.35L793.31-8.35 788.11-10.3Q786.36-10.95 785.46-12.35 784.56-13.75 784.56-15.5L784.56-15.5Q784.56-18.15 786.46-20.18 788.36-22.2 791.23-22.2 794.11-22.2 797.71-20.85L797.71-20.85Q797.41-19.65 797.41-16.65L797.41-16.65 797.41-14.65 796.51-14.65 796.16-17.25Q795.76-20.85 791.61-20.85L791.61-20.85Q789.76-20.85 788.56-19.7 787.36-18.55 787.36-17L787.36-17Q787.36-14.6 790.11-13.55ZM808.25-26.9L808.25-26.9 809-26.9 809-21.6 814-21.6 814-20.7 809-20.7 809-3.75Q809-1.05 810.5-1.05L810.5-1.05Q811.2-1.05 811.73-1.7 812.25-2.35 812.25-3.2 812.25-4.05 812.1-4.8L812.1-4.8 813.05-4.95Q813.25-4.2 813.25-3.3L813.25-3.3Q813.25-1.5 812.18-0.45 811.1 0.6 809.35 0.6 807.6 0.6 806.5-0.83 805.4-2.25 805.4-5.1L805.4-5.1 805.4-20Q805.4-20.7 804.7-20.7L804.7-20.7 802.35-20.7 802.35-21.6 804.8-21.6Q806.4-21.6 808.25-26.9ZM827.1-22.2L827.1-22.2Q830.55-22.2 832.55-19.9 834.55-17.6 834.55-13.15L834.55-13.15Q834.55-12.25 834.45-11.15L834.45-11.15 820.8-11.15 820.8-10.8Q820.8-6.05 822.53-3.33 824.25-0.6 826.98-0.6 829.7-0.6 831.45-2 833.2-3.4 833.85-6L833.85-6 834.8-5.8Q834.2-2.75 832.05-1.07 829.9 0.6 827.1 0.6L827.1 0.6Q822.75 0.6 819.88-2.45 817-5.5 817-10.78 817-16.05 819.9-19.13 822.8-22.2 827.1-22.2ZM831.1-14.85L831.1-14.85Q831.1-21 826.5-21L826.5-21Q824.2-21 822.58-18.5 820.95-16 820.85-12.15L820.85-12.15 830.9-12.15Q831.1-13.85 831.1-14.85ZM851.8-22.2Q853.75-22.2 854.97-20.55 856.2-18.9 856.2-16.4 856.2-13.9 854.15-13.9L854.15-13.9Q852.95-13.9 852.2-14.65L852.2-14.65Q852.85-16.1 852.85-17.6L852.85-17.6Q852.85-20.25 850.65-20.25L850.65-20.25Q848.8-20.25 847.37-17.18 845.95-14.1 845.95-8.25L845.95-8.25 845.95-1.6Q845.95-0.9 846.65-0.9L846.65-0.9 850-0.9 850 0 839.3 0 839.3-0.9 841.65-0.9Q842.35-0.9 842.35-1.6L842.35-1.6 842.35-20Q842.35-20.7 841.65-20.7L841.65-20.7 839.3-20.7 839.3-21.6 841.75-21.6Q844.75-21.6 845.95-21.9L845.95-21.9 845.95-15.5Q846.75-18.95 848.3-20.58 849.85-22.2 851.8-22.2ZM870.95-20.7L870.95-21.6 877.3-21.6 877.3-20.7 875.45-20.7Q875-20.7 874.75-20L874.75-20 866.1 3.15Q865.95 3.6 865.6 4.5L865.6 4.5 865.05 5.85Q864.9 6.3 864.6 7.08 864.3 7.85 864.1 8.28 863.9 8.7 863.6 9.3L863.6 9.3Q863.25 10.05 862.6 10.73 861.95 11.4 861.25 11.4 860.55 11.4 859.77 10.53 859 9.65 858.85 8.65L858.85 8.65Q863.4 6.7 865.05 2.15L865.05 2.15 865.9-0.15 858.5-20Q858.25-20.7 857.8-20.7L857.8-20.7 855.95-20.7 855.95-21.6 864.45-21.6 864.45-20.7 861.95-20.7 867.7-4.9 873.5-20.7 870.95-20.7Z" opacity="1" transform="matrix(1,0,0,1,0,0)" fill="#233565" class="slogan-text-1" data-fill-palette-color="secondary" id="text-1"></path></svg></g></svg></g></svg></g></svg></g><g transform="matrix(1,0,0,1,0,0.24356046408740895)"><svg viewBox="0 0 75.38514219958583 97.4241856349667" height="97.4241856349667" width="75.38514219958583"><g><svg xmlns="http://www.w3.org/2000/svg" xmlns:xlink="http://www.w3.org/1999/xlink" version="1.1" x="0" y="0" viewBox="12.983 1 75.68599999999999 97.813" enable-background="new 0 0 100 100" xml:space="preserve" height="97.4241856349667" width="75.38514219958583" class="icon-icon-0" data-fill-palette-color="accent" id="icon-0"><g fill="#8bd8bc" data-fill-palette-color="accent"><polygon fill-rule="evenodd" clip-rule="evenodd" points="12.983,10.59 30.001,98.813 24.129,39.764 53.15,37.872 53.096,27.989    64.549,1 53.622,18.977  " fill="#8bd8bc" data-fill-palette-color="accent"></polygon><polygon fill-rule="evenodd" clip-rule="evenodd" points="59.389,54.548 64.549,1.007 55.809,40.723 36.197,41.768 37.767,62.23    30.001,98.813 42.058,58.914  " fill="#8bd8bc" data-fill-palette-color="accent"></polygon><polygon fill-rule="evenodd" clip-rule="evenodd" points="62.8,67.182 63.349,56.729 47.37,60.484 47.338,72.281 30.001,98.813    51.681,71.197  " fill="#8bd8bc" data-fill-palette-color="accent"></polygon><polygon fill-rule="evenodd" clip-rule="evenodd" points="65.711,62.394 80.552,57.663 82.061,45.131 66.162,47.226  " fill="#8bd8bc" data-fill-palette-color="accent"></polygon><polygon fill-rule="evenodd" clip-rule="evenodd" points="72.07,44.502 83.058,43.085 84.639,32.807 76.56,32.434 64.549,1    72.979,31.967  " fill="#8bd8bc" data-fill-palette-color="accent"></polygon><polygon fill-rule="evenodd" clip-rule="evenodd" points="87.413,31.294 88.669,21.788 79.125,19.094 64.549,1 79.032,23.437    78.61,30.437  " fill="#8bd8bc" data-fill-palette-color="accent"></polygon></g></svg></g></svg></g></svg></g><defs></defs></svg><rect width="395.52" height="78.93112275053866" fill="none" stroke="none" visibility="hidden"></rect></g></svg></g></svg>